<?xml version="1.0" standalone="no"?>
<!DOCTYPE svg PUBLIC "-//W3C//DTD SVG 20010904//EN"
 "http://www.w3.org/TR/2001/REC-SVG-20010904/DTD/svg10.dtd">
<svg version="1.0" xmlns="http://www.w3.org/2000/svg"
 width="530.000000pt" height="530.000000pt" viewBox="0 0 530.000000 530.000000"
 preserveAspectRatio="xMidYMid meet">
<metadata>
Created by potrace 1.14, written by Peter Selinger 2001-2017
</metadata>
<g transform="translate(0.000000,530.000000) scale(0.100000,-0.100000)"
fill="#000000" stroke="none">
<path d="M2594 3181 c29 -30 32 -31 105 -27 58 2 77 7 79 18 4 22 -21 29 -123
35 l-90 6 29 -32z"/>
<path d="M2322 3182 l-33 -3 2 -72 c6 -176 87 -324 221 -405 l55 -32 48 27
c99 55 179 154 221 273 22 64 31 210 13 210 -8 0 -24 3 -36 6 -22 6 -23 4 -23
-63 0 -137 -55 -267 -159 -375 l-57 -58 -55 52 c-104 99 -149 200 -155 347 -2
51 -5 94 -6 95 -2 1 -18 0 -36 -2z"/>
<path d="M2377 3183 c-14 -13 -6 -33 13 -33 11 0 42 -8 69 -19 46 -17 50 -17
71 -1 13 10 20 22 17 27 -11 18 -157 40 -170 26z"/>
<path d="M2564 3154 c-3 -17 -21 -49 -40 -70 -18 -22 -34 -46 -35 -54 -1 -8
-3 -22 -4 -30 -1 -8 5 -26 12 -38 8 -13 13 -25 11 -26 -2 -1 -15 -7 -30 -14
-17 -7 -28 -19 -28 -32 0 -64 192 -79 235 -17 15 21 14 23 -10 45 -36 31 -59
29 -51 -4 5 -17 3 -23 -4 -19 -17 11 -11 51 11 71 47 42 58 97 26 129 -13 12
-15 10 -21 -17 -3 -16 -19 -46 -36 -65 -16 -18 -30 -40 -30 -48 0 -7 -3 -21
-7 -31 -4 -11 -3 -15 4 -11 6 4 17 -1 24 -10 12 -15 12 -16 -1 -8 -8 5 -25 8
-37 7 -11 -2 -24 2 -28 7 -3 7 0 8 9 5 12 -5 15 1 14 28 -1 24 9 47 30 77 37
51 41 94 12 131 l-19 25 -7 -31z"/>
<path d="M2535 2821 c-13 -12 -3 -71 15 -92 l20 -24 20 24 c11 13 20 38 20 56
0 30 -3 33 -35 37 -20 2 -38 2 -40 -1z"/>
<path d="M2197 2608 c-32 -11 -45 -48 -28 -84 8 -19 18 -24 45 -24 19 0 38 5
41 10 4 6 -7 10 -25 10 -23 0 -33 6 -39 23 -5 12 -6 27 -4 34 7 17 35 25 47
13 14 -14 26 -13 26 4 0 18 -29 25 -63 14z"/>
<path d="M2323 2612 c-6 -4 -21 -31 -32 -60 -20 -50 -20 -52 -2 -52 14 0 18 5
14 20 -4 16 0 20 17 20 17 0 21 -4 17 -20 -4 -16 0 -20 18 -20 l23 0 -18 48
c-9 26 -19 52 -21 59 -2 7 -9 9 -16 5z m3 -59 c-10 -10 -19 5 -10 18 6 11 8
11 12 0 2 -7 1 -15 -2 -18z"/>
<path d="M2404 2610 c-10 -4 -13 -9 -8 -13 12 -7 12 -66 1 -84 -6 -9 -1 -13
16 -13 21 0 24 4 19 26 -3 19 -1 25 7 20 6 -4 11 -14 11 -21 0 -17 37 -39 44
-26 3 4 -3 16 -14 26 -18 17 -19 20 -5 35 9 9 13 24 10 33 -7 17 -53 27 -81
17z m51 -30 c0 -7 -6 -15 -12 -17 -8 -3 -13 4 -13 17 0 13 5 20 13 18 6 -3 12
-11 12 -18z"/>
<path d="M2528 2613 c-9 -2 -15 -10 -12 -17 10 -26 10 -86 0 -90 -6 -2 1 -5
15 -5 23 -1 26 2 22 27 l-4 27 16 -27 c9 -17 24 -28 37 -28 l22 0 -23 21 c-16
15 -20 24 -12 32 17 17 13 45 -8 57 -20 10 -25 11 -53 3z m48 -42 c-14 -22
-33 -12 -28 15 4 23 6 24 20 11 8 -8 11 -20 8 -26z"/>
<path d="M2630 2566 c9 -59 26 -79 59 -71 36 9 42 17 43 56 0 19 5 40 11 47 7
9 3 12 -18 12 -20 0 -25 -3 -18 -12 12 -16 8 -67 -6 -81 -17 -17 -41 12 -41
48 0 19 6 36 13 38 6 3 -2 6 -19 6 l-31 1 7 -44z"/>
<path d="M2771 2596 c-15 -18 -5 -43 20 -49 10 -3 19 -12 19 -21 0 -19 -26
-22 -33 -3 -2 6 -8 8 -13 4 -15 -14 25 -37 49 -28 32 12 33 45 1 65 -20 14
-23 20 -14 29 10 9 14 9 17 -1 5 -13 23 -7 23 9 0 14 -56 11 -69 -5z"/>
<path d="M2865 2558 c0 -48 2 -53 25 -58 35 -8 60 -1 60 17 0 13 -3 13 -15 3
-19 -16 -47 -6 -39 15 3 8 10 13 14 10 5 -3 11 -1 15 5 3 5 -1 10 -9 10 -9 0
-16 9 -16 20 0 21 15 27 25 10 7 -12 25 -4 25 11 0 5 -19 9 -42 9 l-43 0 0
-52z"/>
<path d="M2975 2552 l0 -57 30 0 c35 1 55 11 55 27 0 7 -5 6 -15 -2 -23 -19
-42 -5 -40 32 0 18 4 39 8 46 6 8 1 12 -15 12 -21 0 -23 -4 -23 -58z"/>
<path d="M1693 2532 c-55 -3 -74 -24 -33 -37 23 -7 23 -8 10 -72 -5 -26 -11
-61 -14 -78 -11 -83 -19 -105 -38 -111 -53 -16 11 -31 112 -25 20 2 10 31 -11
31 -20 0 -21 3 -15 68 4 37 8 76 11 87 2 11 4 25 5 30 1 6 18 -39 39 -98 21
-59 43 -113 50 -120 20 -20 56 32 86 125 29 87 45 116 45 83 1 -11 3 -54 6
-97 6 -71 5 -76 -15 -83 -36 -11 -24 -30 16 -28 21 1 53 2 71 2 21 1 32 6 32
16 0 8 -6 15 -13 15 -10 0 -18 34 -29 123 -15 121 -15 122 6 139 11 9 18 20
14 24 -10 9 -93 13 -106 5 -7 -4 -27 -51 -46 -105 -18 -53 -36 -99 -39 -102
-3 -3 -19 39 -37 93 -18 54 -37 103 -44 108 -6 6 -35 9 -63 7z"/>
<path d="M2502 2445 c-10 -22 -14 -23 -41 -14 -33 12 -91 -1 -110 -24 -19 -23
-20 -64 -1 -94 17 -28 17 -30 -1 -52 -16 -20 -17 -26 -5 -49 12 -23 11 -27 -6
-42 -16 -12 -18 -20 -9 -42 10 -28 25 -35 81 -41 74 -8 140 30 140 82 0 40
-28 60 -89 65 -30 3 -58 9 -64 15 -12 12 -2 16 54 25 20 4 43 14 51 24 19 21
28 66 17 83 -4 8 2 20 17 31 19 16 22 23 14 39 -15 26 -35 24 -48 -6z m-42
-89 c0 -42 -19 -61 -45 -43 -20 16 -23 60 -5 82 20 24 50 1 50 -39z m26 -189
c10 -10 -9 -36 -30 -41 -49 -12 -96 25 -61 50 14 11 78 5 91 -9z"/>
<path d="M2146 2430 c-56 -17 -57 -52 -1 -43 39 6 65 -9 65 -38 0 -11 -3 -19
-7 -20 -70 -7 -101 -22 -112 -52 -9 -22 2 -56 23 -69 19 -13 63 -9 77 8 11 14
13 14 21 0 11 -19 41 -21 70 -5 21 11 21 12 4 25 -15 10 -18 26 -17 78 2 113
-30 143 -123 116z m64 -154 c0 -26 -20 -39 -45 -30 -22 9 -18 33 8 44 33 13
37 12 37 -14z"/>
<path d="M2645 2431 c-42 -19 -68 -59 -73 -114 -4 -46 -1 -57 20 -81 32 -37
99 -46 144 -18 62 40 80 141 32 189 -25 25 -92 38 -123 24z m71 -55 c31 -48 7
-136 -38 -136 -20 0 -48 52 -43 79 2 9 4 24 4 33 1 21 28 48 46 48 8 0 22 -11
31 -24z"/>
<path d="M2840 2429 c-25 -10 -25 -11 -5 -25 16 -12 20 -28 22 -89 1 -65 -1
-75 -18 -80 -10 -4 -19 -11 -19 -16 0 -9 11 -11 75 -11 19 0 40 1 45 1 15 1
12 28 -4 34 -11 4 -14 23 -12 73 2 62 3 67 25 71 41 6 61 -23 61 -86 0 -47 -4
-59 -22 -71 -22 -14 -21 -15 32 -20 62 -6 90 -2 90 12 0 5 -8 12 -18 15 -15 4
-18 14 -16 71 3 81 -9 118 -42 126 -27 7 -72 -1 -92 -17 -10 -8 -16 -7 -23 6
-11 19 -41 21 -79 6z"/>
<path d="M3205 2426 c-70 -31 -95 -141 -43 -192 45 -45 157 -40 166 8 2 13 -4
15 -41 11 -36 -4 -49 -1 -66 16 -11 11 -21 29 -21 39 0 15 8 18 49 17 70 -1
91 8 91 43 0 55 -73 87 -135 58z m75 -51 c0 -8 -8 -15 -17 -16 -10 0 -26 -2
-35 -4 -28 -5 -33 17 -9 36 17 14 27 16 42 9 10 -6 19 -17 19 -25z"/>
<path d="M3592 2312 c-34 -5 -55 -43 -43 -76 10 -25 15 -28 46 -28 28 0 35 2
35 13 0 5 -3 8 -7 6 -16 -9 -53 13 -53 31 0 28 26 48 43 33 8 -6 17 -8 20 -4
19 18 -3 31 -41 25z"/>
<path d="M3430 2300 c0 -6 -9 -29 -19 -50 -19 -39 -19 -40 0 -40 10 0 18 5 17
12 -2 6 6 14 16 16 14 3 17 0 13 -12 -5 -12 0 -16 20 -16 19 0 23 3 16 13 -6
6 -16 29 -22 50 -11 33 -41 53 -41 27z m16 -47 c-10 -10 -19 5 -10 18 6 11 8
11 12 0 2 -7 1 -15 -2 -18z"/>
<path d="M3510 2220 c0 -5 5 -10 10 -10 6 0 10 5 10 10 0 6 -4 10 -10 10 -5 0
-10 -4 -10 -10z"/>
<path d="M3650 2220 c0 -5 5 -10 10 -10 6 0 10 5 10 10 0 6 -4 10 -10 10 -5 0
-10 -4 -10 -10z"/>
</g>
</svg>
