<svg xmlns="http://www.w3.org/2000/svg" id="Capa_1" data-name="Capa 1" viewBox="0 0 62 62"><defs><style>.cls-1{fill:#fff;stroke:#1a1a1a;stroke-miterlimit:10;stroke-width:0.5px;}.cls-2{fill:#1a1a1a;}</style></defs><path class="cls-1" d="M30.88,56.08A24.83,24.83,0,0,1,5.61,30.47,25.17,25.17,0,0,1,31.88,5.93,25,25,0,0,1,56.39,31.32C56.1,45.62,45.49,56.12,30.88,56.08Z"/><path class="cls-2" d="M33.38,32.59V46.05H27.77V32.66H23.23V27.33h4.51c0-1.3,0-2.46,0-3.62,0-4.83,3-7.76,7.81-7.76h3.19v5.61H35.48c-1.65,0-2.11.47-2.12,2.11v3.55h5.41c-.28,1.87-.54,3.57-.81,5.36Z"/></svg>