<svg xmlns="http://www.w3.org/2000/svg" id="Capa_1" data-name="Capa 1" viewBox="0 0 62 62"><defs><style>.cls-1{fill:#fff;}.cls-2{fill:none;stroke:#1a1a1a;stroke-miterlimit:10;stroke-width:0.5px;}.cls-3{fill:#1a1a1a;}</style></defs><path class="cls-1" d="M30.88,56.19A24.93,24.93,0,0,1,5.5,30.47,25.27,25.27,0,0,1,31.88,5.81,25.08,25.08,0,0,1,56.5,31.32C56.21,45.68,45.56,56.24,30.88,56.19Z"/><path class="cls-2" d="M30.88,56.19A24.93,24.93,0,0,1,5.5,30.47,25.27,25.27,0,0,1,31.88,5.81,25.08,25.08,0,0,1,56.5,31.32C56.21,45.68,45.56,56.24,30.88,56.19Z"/><path class="cls-3" d="M17.75,35.6V26.4c0-.33.1-.65.11-1A7.46,7.46,0,0,1,24,18.23c.78-.17,1.58-.23,2.37-.33h9.3c.31,0,.62.09.93.11a7.5,7.5,0,0,1,7.35,6.1c.16.75.22,1.53.32,2.29v9.2c0,.31-.1.61-.11.92A7.45,7.45,0,0,1,38,43.78c-.76.16-1.55.22-2.32.32h-9.3c-.31,0-.62-.09-.93-.11a7.49,7.49,0,0,1-7.35-6.1C17.91,37.14,17.85,36.36,17.75,35.6ZM31,19.85h0c-1.77,0-3.54.13-5.3.18a6.18,6.18,0,0,0-3.54,1.11,5.53,5.53,0,0,0-2.27,4.65c-.06,3.47-.07,7,0,10.42A5.57,5.57,0,0,0,25.71,42q5.31.11,10.6,0a5.56,5.56,0,0,0,5.78-5.67c.08-3.53.07-7.06,0-10.59A5.4,5.4,0,0,0,37,20.12C35,19.9,33,19.93,31,19.85Z"/><path class="cls-3" d="M37.57,31A6.57,6.57,0,1,1,31,24.51,6.53,6.53,0,0,1,37.57,31Zm-2.06,0A4.51,4.51,0,1,0,31,35.46,4.49,4.49,0,0,0,35.51,31Z"/><path class="cls-3" d="M38,22.59A1.52,1.52,0,0,1,39.5,24.1,1.54,1.54,0,0,1,38,25.67a1.6,1.6,0,0,1-1.56-1.58A1.56,1.56,0,0,1,38,22.59Z"/></svg>