<svg xmlns="http://www.w3.org/2000/svg" id="Capa_1" data-name="Capa 1" viewBox="0 0 62 62"><defs><style>.cls-1{fill:#fff;}.cls-2{fill:none;stroke:#1a1a1a;stroke-miterlimit:10;stroke-width:0.5px;}.cls-3{fill:#1a1a1a;}</style></defs><path class="cls-1" d="M30.88,56A24.73,24.73,0,0,1,5.7,30.47,25.08,25.08,0,0,1,31.88,6,24.88,24.88,0,0,1,56.3,31.32C56,45.57,45.44,56,30.88,56Z"/><path class="cls-2" d="M30.88,56A24.73,24.73,0,0,1,5.7,30.47,25.08,25.08,0,0,1,31.88,6,24.88,24.88,0,0,1,56.3,31.32C56,45.57,45.44,56,30.88,56Z"/><path class="cls-3" d="M31.13,42.06c-3.78-.19-7.48-.29-11.16-.6-2.8-.24-3.91-1.27-4.34-4a41.66,41.66,0,0,1,0-13c.45-2.95,1.69-3.95,4.89-4.18a142.47,142.47,0,0,1,19.71-.08c.79.05,1.58.13,2.36.21a3.92,3.92,0,0,1,3.66,3.13,29.79,29.79,0,0,1,.56,4.8,41.31,41.31,0,0,1-.43,9.49,4,4,0,0,1-3.95,3.56C38.64,41.7,34.84,41.86,31.13,42.06ZM27.65,26.44v9.18L36.48,31Z"/></svg>